<svg width="24" height="25" viewBox="0 0 24 25" fill="none" xmlns="http://www.w3.org/2000/svg">
<path d="M12 9.71707C10.4954 9.71707 9.27271 10.9398 9.27271 12.4443C9.27271 13.9489 10.4954 15.1716 12 15.1716C13.5045 15.1716 14.7272 13.9489 14.7272 12.4443C14.7272 10.9398 13.5045 9.71707 12 9.71707Z" fill="#878787"/>
<path d="M12 5.62616C7.45454 5.62616 3.57274 8.4534 2 12.4443C3.57274 16.4352 7.45454 19.2625 12 19.2625C16.55 19.2625 20.4273 16.4352 22 12.4443C20.4273 8.4534 16.55 5.62616 12 5.62616ZM12 16.9898C9.49091 16.9898 7.45454 14.9534 7.45454 12.4443C7.45454 9.9352 9.49091 7.89887 12 7.89887C14.5091 7.89887 16.5455 9.93525 16.5455 12.4443C16.5455 14.9534 14.5091 16.9898 12 16.9898Z" fill="#878787"/>
<rect x="2.05204" y="17.4352" width="21.2807" height="1.83333" rx="0.916666" transform="rotate(-33.0777 2.05204 17.4352)" fill="#878787" stroke="white"/>
</svg>
