<svg width="18" height="16" viewBox="0 0 18 16" fill="none" xmlns="http://www.w3.org/2000/svg">
<path fill-rule="evenodd" clip-rule="evenodd" d="M17.8536 0.646447C18.0488 0.841709 18.0488 1.15829 17.8536 1.35355L8.02279 11.1843L3.67075 7.37629C3.46294 7.19445 3.44188 6.87857 3.62372 6.67075C3.80556 6.46293 4.12144 6.44187 4.32926 6.62371L7.97722 9.81568L17.1465 0.646447C17.3417 0.451184 17.6583 0.451184 17.8536 0.646447Z" fill="#D52124"/>
<path fill-rule="evenodd" clip-rule="evenodd" d="M13.8431 2.53565C12.3832 0.975222 10.3055 0 8 0C3.58172 0 0 3.58172 0 8C0 12.4183 3.58172 16 8 16C12.4183 16 16 12.4183 16 8C16 6.99441 15.8145 6.03215 15.4758 5.14559L14.6895 5.93187C14.8913 6.58552 15 7.28007 15 8C15 11.866 11.866 15 8 15C4.13401 15 1 11.866 1 8C1 4.13401 4.13401 1 8 1C10.0293 1 11.857 1.86354 13.1355 3.2432L13.8431 2.53565Z" fill="#D52124"/>
</svg>
