<svg width="24" height="24" viewBox="0 0 24 24" fill="none" xmlns="http://www.w3.org/2000/svg">
<path fill-rule="evenodd" clip-rule="evenodd" d="M20.8536 4.64645C21.0488 4.84171 21.0488 5.15829 20.8536 5.35355L11.0228 15.1843L6.67075 11.3763C6.46294 11.1944 6.44188 10.8786 6.62372 10.6707C6.80556 10.4629 7.12144 10.4419 7.32926 10.6237L10.9772 13.8157L20.1465 4.64645C20.3417 4.45118 20.6583 4.45118 20.8536 4.64645Z" fill="#359207"/>
<path fill-rule="evenodd" clip-rule="evenodd" d="M16.8431 6.53565C15.3832 4.97522 13.3055 4 11 4C6.58172 4 3 7.58172 3 12C3 16.4183 6.58172 20 11 20C15.4183 20 19 16.4183 19 12C19 10.9944 18.8145 10.0321 18.4758 9.14559L17.6895 9.93187C17.8913 10.5855 18 11.2801 18 12C18 15.866 14.866 19 11 19C7.13401 19 4 15.866 4 12C4 8.13401 7.13401 5 11 5C13.0293 5 14.857 5.86354 16.1355 7.2432L16.8431 6.53565Z" fill="#359207"/>
</svg>
