<svg width="24" height="24" viewBox="0 0 24 24" fill="none" xmlns="http://www.w3.org/2000/svg">
<path d="M12 9.27283C10.4954 9.27283 9.27274 10.4955 9.27274 12.0001C9.27274 13.5046 10.4954 14.7274 12 14.7274C13.5046 14.7274 14.7273 13.5046 14.7273 12.0001C14.7273 10.4955 13.5045 9.27283 12 9.27283Z" fill="#878787"/>
<path d="M12 5.18188C7.45454 5.18188 3.57274 8.00913 2 12.0001C3.57274 15.9909 7.45454 18.8182 12 18.8182C16.55 18.8182 20.4273 15.9909 22 12.0001C20.4273 8.00913 16.55 5.18188 12 5.18188ZM12 16.5455C9.49091 16.5455 7.45454 14.5091 7.45454 12C7.45454 9.49093 9.49091 7.4546 12 7.4546C14.5091 7.4546 16.5455 9.49097 16.5455 12.0001C16.5455 14.5091 14.5091 16.5455 12 16.5455Z" fill="#878787"/>
</svg>
